Cover :: 
http://i.minus.com/iysj0rFobBlsI.png

Screen :: 
http://i.minus.com/iBRdJzFjNM13z.png
 
http://i.minus.com/iZcfQfsF7HHsa.png
 
http://i.minus.com/i7QUdvEIYChd2.png
 
http://i.minus.com/iULnV1umSCwyW.png
 
http://i.minus.com/iKJEvV04ZCdYY.png
 
http://i.minus.com/isr5kdBA5DlYe.png
 
http://i.minus.com/ii9c7tnRAZz13.png
 
http://i.minus.com/ih3sGem3waqtx.png


General ::
Format                           : AVI
Format/Info                      : Audio Video Interleave
File size                        : 85.8 MiB
Duration                         : 4mn 8s
Overall bit rate                 : 2 902 Kbps


Video Info ::
ID                               : 0
Format                           : AVC
Format/Info                      : Advanced Video Codec
Format profile                   : High@L5.1
Format settings, CABAC           : Yes
Format settings, ReFrames        : 2 frames
Codec ID                         : H264
Duration                         : 10s 0ms
Bit rate                         : 2 569 Kbps
Width                            : 1 280 pixels
Height                           : 544 pixels
Display aspect ratio             : 2.35:1
Frame rate                       : 30.000 fps
Color space                      : YUV
Chroma subsampling               : 4:2:0
Bit depth                        : 8 bits
Scan type                        : Progressive
Bits/(Pixel*Frame)               : 0.123
Stream size                      : 76.0 MiB (89%)


Audio Info ::
ID                               : 1
Format                           : MPEG Audio
Format version                   : Version 1
Format profile                   : Layer 3
Codec ID                         : 55
Codec ID/Hint                    : MP3
Duration                         : 4mn 8s
Bit rate mode                    : Constant
Bit rate                         : 320 Kbps
Channel(s)                       : 2 channels
Sampling rate                    : 44.1 KHz
Compression mode                 : Lossy
Stream size                      : 9.46 MiB (11%)